<svg width="64" height="64" viewBox="0 0 64 64" fill="none" xmlns="http://www.w3.org/2000/svg">
<path d="M10.0775 7.0383C10.1124 6.65552 10.1092 6.27022 10.0678 5.88808C9.75083 4.86666 9.84648 3.7617 10.3343 2.80994C10.8221 1.85818 11.6632 1.13532 12.6776 0.796222C14.3642 0.138958 16.1021 1.01853 17.1489 3.11018C17.9382 4.6584 18.3785 6.36083 18.4388 8.09759C18.4991 9.83436 18.1779 11.5632 17.4978 13.1624C16.5912 15.4716 14.9519 16.3666 12.8767 15.9317C11.0518 15.545 10.3066 14.3977 10.2215 11.845C10.2031 11.2979 10.1568 10.7528 10.1249 10.2686C9.93154 10.1468 9.83489 10.0366 9.73146 10.0288C5.67672 9.72631 5.62646 9.72244 5.27753 13.7559C5.05426 16.3376 5.00786 18.9348 4.88124 21.5252C4.82711 22.6203 5.14801 23.2157 6.44321 23.2031C21.7149 23.0523 36.9841 22.927 52.2506 22.8271C52.5783 22.7718 52.9014 22.692 53.2172 22.5884C53.2172 18.9889 53.2278 15.3034 53.1988 11.6188C53.1966 11.4406 53.1586 11.2646 53.0873 11.1012C53.0159 10.9379 52.9125 10.7905 52.7832 10.6677C51.5131 9.73114 48.6038 10.7364 48.0345 12.1814C47.6796 13.229 47.1679 14.2168 46.517 15.111C45.0101 16.9601 42.8759 16.7677 41.603 14.7573C41.1805 14.0739 40.839 13.3438 40.5852 12.5815C40.3497 11.704 40.1635 10.8141 40.0275 9.91576C34.1217 9.82877 28.1696 9.73598 22.2185 9.66058C21.222 9.64802 20.0834 9.83747 19.9384 8.43498C19.7915 7.0122 20.8711 6.57918 21.9749 6.60527C26.7807 6.71836 31.5845 6.92327 36.3883 7.10982C36.7527 7.12432 37.1084 7.29057 37.4748 7.33696C39.9985 7.66173 40.0961 7.55927 40.5426 5.0984C40.8113 3.61956 40.7688 2.07305 42.2699 0.996301C44.2861 -0.453545 46.0511 -0.405218 47.4294 1.69996C48.0796 2.87957 48.5692 4.14084 48.8851 5.45023C49.0382 6.18005 49.1259 6.9221 49.147 7.66753C50.4528 7.66753 51.7345 7.596 53.0055 7.68299C55.2876 7.83958 56.0715 8.5529 56.0628 10.776C56.0357 18.2524 55.9178 25.7297 55.8298 33.2061C55.8302 33.8242 55.7996 34.442 55.738 35.0571C55.4887 36.3765 55.6183 37.7395 56.1118 38.9883C56.6053 40.2371 57.4426 41.3205 58.5265 42.113C64.0611 46.7303 63.8774 55.4293 58.6851 60.4236C53.4927 65.4178 44.8554 65.1974 40.3281 59.6619C39.7368 58.901 38.9532 58.3116 38.0581 57.9548C37.1629 57.598 36.1888 57.4866 35.2362 57.6321C28.0904 58.1019 21.0519 57.1663 14.0182 56.163C10.6168 55.5175 7.11523 55.6254 3.76003 56.479C2.431 56.8715 1.76794 56.0818 1.71381 54.8117C1.56786 51.4191 1.33878 48.0226 1.37551 44.6309C1.44704 37.9616 1.63938 31.2923 1.85106 24.623C1.97962 20.5518 2.14103 16.4778 2.46 12.4172C2.81376 7.89467 3.86925 7.02476 8.39664 7.0412C8.88282 7.03926 9.369 7.0383 10.0775 7.0383ZM37.3762 54.2695C36.8622 52.1574 36.8997 49.9488 37.485 47.8554C38.0703 45.762 39.1837 43.8542 40.7186 42.315C43.9575 38.9784 48.0316 38.0148 52.7146 38.6421V26.2236H4.82325V52.9839C15.7319 52.2716 26.3361 55.8749 37.3762 54.2695ZM59.3839 51.3021C59.4021 49.3986 58.8541 47.5326 57.8096 45.9412C56.7651 44.3497 55.2711 43.1046 53.5175 42.364C51.7639 41.6234 49.8297 41.4207 47.9606 41.7817C46.0916 42.1426 44.372 43.051 43.0202 44.3913C41.6684 45.7316 40.7455 47.4434 40.3687 49.3094C39.9919 51.1753 40.1781 53.1111 40.9038 54.871C41.6295 56.6308 42.8618 58.1353 44.4443 59.1933C46.0268 60.2513 47.8881 60.8151 49.7917 60.8131C51.0464 60.8199 52.2901 60.579 53.4517 60.1045C54.6132 59.6299 55.6697 58.9308 56.5607 58.0474C57.4517 57.1639 58.1597 56.1134 58.6441 54.9559C59.1286 53.7985 59.38 52.5569 59.3839 51.3021ZM43.6791 12.9508L44.4659 12.9701C44.9172 11.9984 45.2399 10.9719 45.4257 9.91673C45.4719 7.98749 45.3915 6.05731 45.185 4.1386C45.1618 3.8583 44.6119 3.62246 44.3064 3.36535C44.0735 3.68915 43.6975 3.98782 43.6298 4.34158C43.3513 5.60665 43.1947 6.89549 43.162 8.19044C43.1959 9.77851 43.4965 11.3646 43.6791 12.9508ZM13.329 13.0745C15.9629 11.4574 15.9919 6.13649 13.4634 3.93949C12.5906 6.99577 13.0535 9.92156 13.3319 13.0745H13.329ZM10.3481 31.1782C10.323 30.6254 10.3269 30.0696 10.266 29.5206C10.1974 29.2619 10.1944 28.9903 10.2572 28.7302C10.3201 28.47 10.4467 28.2297 10.6257 28.0308C10.8047 27.8319 11.0305 27.6808 11.2826 27.5911C11.5347 27.5013 11.8052 27.4758 12.0696 27.5169C14.3948 27.6025 16.7137 27.8129 19.0163 28.1471C19.7016 28.2438 20.7812 28.9058 20.846 29.4152C21.1488 31.5734 21.2155 33.7582 21.0451 35.9308C20.9948 36.4711 19.5634 37.2425 18.736 37.284C16.5295 37.3864 14.3183 37.2851 12.1305 36.9815C11.5505 36.9022 10.8314 35.9076 10.6613 35.2136C10.4261 33.8833 10.2952 32.5367 10.2698 31.186L10.3481 31.1782ZM18.2546 34.1011C18.5755 30.8351 16.884 29.8328 13.3706 31.0903C13.1144 34.4443 13.8655 34.9208 18.2546 34.1011ZM29.0802 27.5865C30.4492 27.6633 31.8082 27.8668 33.1397 28.1945C34.0271 28.538 34.7419 29.2197 35.127 30.0899C35.8132 31.8297 34.3692 36.1464 32.7908 37.1168C31.8988 37.6216 30.8777 37.8519 29.8553 37.7789C28.5196 37.5885 27.2037 37.2786 25.9234 36.8529C24.5305 36.4895 24.2125 35.3354 24.1081 34.1466C23.9786 32.6783 23.997 31.1976 23.9458 29.7226C23.8955 28.2805 24.429 27.5227 26.0268 27.7025C27.0457 27.7337 28.0665 27.6949 29.0802 27.5865ZM27.0504 33.8856C31.0133 35.4814 32.0156 34.9082 31.9934 30.9588H27.0494L27.0504 33.8856ZM10.3462 44.7014C10.0137 41.1416 11.4403 40.0484 15.3163 40.3693C16.6111 40.4315 17.8952 40.6351 19.1458 40.9763C19.935 41.2201 20.5967 41.7644 20.9881 42.4919C21.6946 44.251 20.4149 47.7181 18.8829 48.8267C17.0812 50.1306 13.2353 50.553 11.9033 49.1554C10.8749 48.0748 10.5163 46.3572 9.86001 44.9238L10.3462 44.7014ZM13.0661 43.2284C13.328 44.6174 13.2053 46.0179 13.8452 46.6713C14.3052 47.1411 15.9184 46.881 16.7642 46.4509C17.4408 46.1088 17.725 45.0146 18.3639 43.9572L13.0661 43.2284ZM28.8946 49.5546C24.372 49.1824 24.1062 48.8896 24.0617 44.2162C24.0559 43.5996 24.0443 42.9819 24.0733 42.3672C24.17 40.3374 24.7248 39.9585 26.6976 40.3036C27.489 40.3702 28.2858 40.3328 29.0676 40.1924C32.8208 39.8309 34.4997 41.593 33.9004 45.2823C33.8801 45.4041 33.8569 45.525 33.8376 45.6467C33.1755 49.7595 33.0063 49.8909 28.8946 49.5546ZM27.1064 43.7552C26.9131 46.7767 27.2243 46.9999 30.5793 46.3707C31.281 43.0061 30.9688 42.7635 27.1064 43.759V43.7552ZM48.6985 32.0414C48.6985 35.3557 48.1253 36.0043 44.8236 36.3126C43.4218 36.5068 42.0068 36.5898 40.5919 36.561C38.6095 36.4296 37.8788 35.5519 37.8073 33.5811C37.683 32.3547 37.7054 31.1178 37.874 29.8966C37.9831 29.5229 38.1778 29.1798 38.4428 28.8945C38.7077 28.6093 39.0355 28.3898 39.4002 28.2534C40.9698 28.0315 42.5514 27.904 44.1363 27.8716C47.3956 27.5952 48.6956 28.7715 48.6985 32.0414ZM40.7186 31.4972C40.7543 32.2792 40.7833 32.921 40.821 33.7387C42.163 33.6609 43.4982 33.4933 44.8177 33.237C45.2266 33.1336 45.6403 32.3217 45.6809 31.8036C45.7012 31.5455 44.8796 30.9646 44.4514 30.9762C43.1981 31.0774 41.9517 31.2514 40.7186 31.4972ZM47.4971 50.6642C47.5452 51.2159 47.7845 51.7335 48.1737 52.1276C49.8091 53.407 51.5131 54.5964 53.2781 55.6903C53.5673 55.7923 53.8779 55.8186 54.1801 55.7669C54.4824 55.7151 54.7665 55.5869 55.0053 55.3945C55.2019 54.7461 55.1569 54.0483 54.8787 53.4305C54.7347 53.0284 54.2128 52.7085 53.7942 52.4639C52.5127 51.8302 51.4476 50.8309 50.7335 49.5923C50.0194 48.3537 49.6883 46.9313 49.782 45.5047C49.8207 44.5014 49.3326 43.4807 48.1669 43.8161C47.5309 43.9988 47.1249 44.9818 46.9345 45.2137C47.1588 47.4823 47.2738 49.0809 47.4971 50.6642Z" fill="#F7921E"/>
</svg>
