<svg width="64" height="64" viewBox="0 0 64 64" fill="none" xmlns="http://www.w3.org/2000/svg">
<path fill-rule="evenodd" clip-rule="evenodd" d="M50.701 18.5226C51.1605 18.2085 51.7046 17.9824 52.2645 18.1148C52.8579 18.2551 53.1943 18.7274 53.3739 19.1648C53.5533 19.6019 53.6357 20.1336 53.6672 20.678C53.6993 21.2336 53.6809 21.8575 53.6268 22.5085C53.4127 25.0881 52.6155 28.3742 51.8485 30.1718L51.8317 30.2093C51.028 31.8574 50.3413 33.5008 48.9813 34.8952C48.669 35.2154 47.9842 35.9178 47.2448 36.6218C46.5252 37.3069 45.6883 38.0577 45.0878 38.4273L45.0337 38.4609L44.9758 38.4843C44.278 38.7704 43.4313 38.7588 42.8347 38.2491C42.5252 37.9846 42.322 37.6108 42.2732 37.1726C42.227 36.7586 42.3225 36.3346 42.5154 35.9265C42.6074 35.6967 42.7643 35.518 42.8682 35.4085C43.0013 35.2683 43.1662 35.1225 43.3353 34.9781C43.6961 34.6698 44.1001 34.3488 44.5902 33.9124C45.5428 33.0642 46.6669 31.9067 47.542 30.3116L47.5481 30.3007C48.9354 27.862 49.7294 25.0153 49.7295 21.9609C49.7295 21.5653 49.7272 20.8681 49.9375 20.139C49.9377 19.9854 49.9384 19.8489 49.9451 19.7382C49.9535 19.601 49.9742 19.4037 50.0716 19.2038C50.1705 19.001 50.313 18.8735 50.3749 18.8171C50.4487 18.7499 50.4995 18.7073 50.5821 18.6226L50.6362 18.5663L50.701 18.5226ZM48.4296 34.3296C48.2615 34.502 47.9874 34.782 47.657 35.1124C47.6807 35.0887 47.7048 35.066 47.7279 35.0429L48.4296 34.3296ZM50.8351 19.4702C50.8318 19.4737 50.8291 19.4777 50.8259 19.4812C50.8449 19.4602 50.8668 19.4386 50.893 19.4148L50.8351 19.4702Z" fill="#F7921E"/>
<path fill-rule="evenodd" clip-rule="evenodd" d="M23.5516 7.7384C27.9016 3.2845 36.0587 0.445466 43.5701 1.76574L43.612 1.77277L43.6524 1.78449C44.0451 1.89955 44.3258 2.00851 44.5454 2.11887C44.7732 2.23339 44.9154 2.34068 45.0094 2.40949C45.085 2.46489 45.1084 2.4792 45.158 2.49934C45.2209 2.52484 45.3434 2.56296 45.5938 2.60793C47.509 2.61377 48.8391 2.84315 50.5761 3.51105C52.7081 4.31761 55.0908 6.17124 57.1326 8.37355C59.1738 10.5751 60.9565 13.2149 61.8399 15.6884C62.8833 18.2569 64.1955 22.0276 63.9756 25.6353L63.9749 25.6439L63.9741 25.6517C63.66 29.5158 63.1858 32.578 62.2712 35.3087C61.3522 38.0522 60.0004 40.4278 57.9746 42.9423C54.0026 48.1303 47.4482 49.4146 41.2027 49.8415L41.1936 49.8423C37.3838 50.0593 34.5822 49.8427 31.1428 48.7407C28.6806 47.9719 27.3108 47.1915 26.2847 46.4806C25.3795 45.8535 24.8944 45.4123 24.1886 45.0571C23.293 45.7228 21.1412 47.3057 18.938 48.9446C16.2684 50.9305 13.5518 52.9821 12.7541 53.6978L12.7412 53.7087L12.7282 53.7204C10.6374 55.4355 8.78745 56.9096 6.93519 58.5978L6.92071 58.6118L6.90471 58.6251C5.9031 59.4467 5.09949 60.2698 4.26535 61.1251L4.22572 61.1649L4.18153 61.1993C4.09638 61.2648 3.99777 61.3483 3.87523 61.4532C3.75794 61.5537 3.62081 61.672 3.47902 61.7868C3.20553 62.0084 2.84793 62.2741 2.45726 62.4267C2.04915 62.5861 1.49546 62.6588 0.973761 62.3071C0.499703 61.9874 0.222862 61.4241 0.0487642 60.7696L0 60.5876L0.0365732 60.4025C0.12132 59.968 0.340759 59.5878 0.57298 59.2782C0.808995 58.9636 1.09523 58.6738 1.37149 58.4189C1.64835 58.1634 1.93754 57.9231 2.17991 57.7204C2.43546 57.5067 2.6236 57.3467 2.74604 57.2212C5.06577 54.8427 8.2645 52.4308 10.7015 50.3485L10.7236 50.329L10.7472 50.3118C11.4806 49.7746 14.1253 47.8603 16.6705 45.9696C17.9428 45.0245 19.1849 44.0896 20.1457 43.3392C20.6267 42.9635 21.0321 42.6378 21.3336 42.3829C21.3675 42.3542 21.3981 42.3242 21.4288 42.2978C21.2503 42.0414 21.0207 41.7371 20.7484 41.3759C20.3171 40.8036 19.8138 40.1186 19.4638 39.4118L19.2352 38.9821C16.9199 34.4979 16.0462 28.7558 16.6652 23.1759C17.3044 17.414 19.5457 11.7348 23.5516 7.7384ZM41.0503 5.49152C35.6265 5.54506 30.1309 6.47238 26.5331 10.3556L26.5262 10.3634L26.5194 10.3704C23.1158 13.8603 20.9105 18.1566 20.5069 24.5704L20.5061 24.5814L20.5054 24.5915C19.9153 31.2469 21.4261 36.4263 24.5627 40.0454L24.8713 40.3907L24.8751 40.3946C30.2015 46.2603 39.6058 47.1685 48.0053 44.8618C50.8408 44.0312 52.7439 43.0157 54.2616 41.5337C55.7886 40.0426 56.9839 38.0247 58.3197 35.0775C59.3065 32.6444 59.7167 29.7688 59.9229 26.5985V26.5923C60.3251 21.0226 58.5047 15.3062 54.9657 11.879L54.9573 11.8712L54.9497 11.8634C52.0198 8.85924 49.7344 6.55253 45.5184 6.55246C45.048 6.55246 44.6194 6.60101 44.201 6.6509C43.8053 6.69807 43.3648 6.75479 42.9651 6.7384C42.5434 6.72109 42.0843 6.62126 41.6744 6.29309C41.4128 6.08363 41.2107 5.81164 41.0503 5.49152ZM25.3193 10.4946C25.292 10.5248 25.2656 10.5558 25.2385 10.586C25.3706 10.4384 25.5041 10.2918 25.6401 10.147L25.3193 10.4946ZM19.639 25.8009L19.6375 25.8212C19.6282 26.0088 19.6213 26.1953 19.6154 26.3806C19.6215 26.1886 19.6293 25.9953 19.639 25.8009Z" fill="#F7921E"/>
</svg>
