<svg width="64" height="64" viewBox="0 0 64 64" fill="none" xmlns="http://www.w3.org/2000/svg">
<g clip-path="url(#clip0_241_150)">
<mask id="mask0_241_150" style="mask-type:luminance" maskUnits="userSpaceOnUse" x="0" y="0" width="64" height="64">
<path d="M64 0H0V64H64V0Z" fill="white"/>
</mask>
<g mask="url(#mask0_241_150)">
<path d="M48 32C39.1822 32 32 39.1822 32 48C32 56.8178 39.1822 64 48 64C56.8178 64 64 56.8178 64 48C64 39.1822 56.8178 32 48 32ZM48 60.8C40.96 60.8 35.2 55.04 35.2 48C35.2 40.96 40.96 35.2 48 35.2C55.04 35.2 60.8 40.96 60.8 48C60.8 55.04 55.04 60.8 48 60.8ZM10.5956 18.8444C11.0222 18.9156 11.4489 18.9156 11.8756 18.9867V19.9111C11.8756 28.6578 20.2667 37.1911 26.5244 37.1911C32.7822 37.1911 41.1733 28.6578 41.1733 19.9111V19.4133C41.7422 19.2 42.3111 18.9867 42.8089 18.7733C43.5911 18.4178 43.9467 17.4933 43.5911 16.64C43.3778 16.1422 42.88 15.7867 42.3111 15.7156C41.3156 5.68889 35.5556 0 26.5244 0C16.7822 0 11.3067 5.40444 10.6667 15.7156C10.0267 15.7867 9.45778 16.2844 9.31556 16.9956C9.17333 17.8489 9.74222 18.7022 10.5956 18.8444ZM26.5244 33.92C22.3289 33.92 15.0756 26.9511 15.0756 19.84V18.56C18.0622 17.6356 20.1244 15.36 21.4044 13.0844C22.5422 15.0044 24.1067 16.7822 26.0978 18.0622C28.6578 19.6978 31.5733 20.5511 34.6311 20.5511C35.6978 20.5511 36.7644 20.4089 37.9022 20.1956C37.6889 27.2356 30.6489 33.92 26.5244 33.92ZM26.5244 3.2C33.4933 3.2 36.7644 7.04 38.2578 11.4489C35.84 11.6622 33.8489 11.2356 32.4267 10.0978C31.0044 8.96 30.5067 7.39556 30.4356 6.4C30.4356 5.54667 29.6533 4.76444 28.8 4.83556C27.9467 4.83556 27.2356 5.61778 27.2356 6.47111C27.3067 8.74667 28.4444 11.0933 30.4356 12.5867C31.7867 13.6533 33.92 14.72 37.12 14.72C37.6889 14.72 38.4 14.6489 39.04 14.5778C39.1822 15.2889 39.2533 15.9289 39.3244 16.64C33.7778 18.3467 29.8667 16.64 27.9467 15.36C24.8889 13.3689 22.9689 10.0978 22.9689 6.82667C22.9689 5.97333 22.2578 5.19111 21.4044 5.19111C20.5511 5.19111 19.84 5.90222 19.84 6.82667C19.84 7.46667 19.9111 8.10667 20.0533 8.74667C19.9822 8.81778 19.9822 8.88889 19.9111 8.96C19.84 9.24444 18.2044 14.5067 14.0089 15.5733C14.4356 7.25333 18.6311 3.2 26.5244 3.2ZM29.0844 50.0622L30.0089 49.1378C30.6489 48.4978 30.6489 47.5022 30.0089 46.8622C29.3689 46.2222 28.3733 46.2222 27.7333 46.8622L26.6667 47.9289H26.3822L24.6044 46.2222L26.5244 44.3022C27.1644 44.7289 28.0178 44.6578 28.5867 44.0889C29.2267 43.4489 29.2267 42.4533 28.5867 41.8133L28.5156 41.7422L29.3689 41.4578C30.2222 41.1733 30.6489 40.2489 30.3644 39.4667C30.08 38.6133 29.1556 38.1867 28.3733 38.4711L26.5956 39.04L19.2 36.6222C18.4889 36.4089 17.7778 36.6222 17.3511 37.2622L15.0044 40.8178L0 48.64V56.0356C0 56.8889 0.711111 57.6 1.56444 57.6C2.41778 57.6 3.12889 56.8889 3.12889 55.9644V50.56L15.9289 43.8756L20.9067 46.8622C20.9778 47.0756 21.12 47.2889 21.2622 47.5022L23.8222 50.0622L22.4711 55.6089C22.2578 56.4622 22.7556 57.3156 23.6089 57.5289C23.7511 57.5289 23.8933 57.6 23.9644 57.6C24.6756 57.6 25.3156 57.1022 25.5289 56.3911L26.3822 52.9778L27.2356 56.3911C27.4489 57.1022 28.0889 57.6 28.8 57.6C28.9422 57.6 29.0844 57.6 29.1556 57.5289C30.0089 57.3156 30.5067 56.4622 30.2933 55.6089L29.0844 50.0622ZM22.3289 43.9467L18.3467 41.5289L19.3422 40.0356L24.5333 41.7422L22.3289 43.9467ZM53.2622 43.6622L46.3644 50.56L42.6667 46.8622C42.0267 46.2222 41.0311 46.2222 40.3911 46.8622C39.7511 47.5022 39.7511 48.4978 40.3911 49.1378L45.1556 53.9733C45.44 54.2578 45.8667 54.4711 46.2933 54.4711C46.72 54.4711 47.1467 54.3289 47.4311 53.9733L55.3956 45.9378C56.0356 45.2978 56.0356 44.3022 55.3956 43.6622C54.8978 43.0222 53.9022 43.0222 53.2622 43.6622Z" fill="#F7921E"/>
</g>
</g>
<defs>
<clipPath id="clip0_241_150">
<rect width="64" height="64" fill="white"/>
</clipPath>
</defs>
</svg>
